# xmcd
#
# Track frame offsets:
#	150
#	12460
#	24422
#	35882
#	54040
#	68237
#	83917
#	98047
#	109992
#	123127
#	136275
#	151877
#	164542
#	179500
#	193907
#	209062
#	220665
#	233962
#	247670
#	262407
#	274077
#
# Disc length: 3811 seconds
#
# Revision: 1
# Processed by: cddbd v1.5.1PL0 Copyright (c) Steve Scherf et al.
# Submitted via: audiograbber 1.83.01
#
DISCID=320ee115
DTITLE=Gregorio Barrios - Amor de mis amores Vol2
DYEAR=1900
DGENRE=Bolero
TTITLE0=Quizas... quizas
TTITLE1=Todo de mi
TTITLE2=Oracion a mi madre
TTITLE3=Frenesi
TTITLE4=Camino verde
TTITLE5=Siboney
TTITLE6=Me vas a querer
TTITLE7=Amor de mis amores
TTITLE8=Anahi
TTITLE9=Amor de medianoche
TTITLE10=Noche de ronda
TTITLE11=Angelitos negros
TTITLE12=Lamento borincano
TTITLE13=Comprension
TTITLE14=Hoy (ouça)
TTITLE15=Piel canela
TTITLE16=Abrazame asi
TTITLE17=Te quiero, dijiste
TTITLE18=Cabecita en el hombro
TTITLE19=Sabor a mi
TTITLE20=Inutilmente
EXTD=
EXTT0=
EXTT1=
EXTT2=
EXTT3=
EXTT4=
EXTT5=
EXTT6=
EXTT7=
EXTT8=
EXTT9=
EXTT10=
EXTT11=
EXTT12=
EXTT13=
EXTT14=
EXTT15=
EXTT16=
EXTT17=
EXTT18=
EXTT19=
EXTT20=
PLAYORDER=
